<?xml version="1.0" encoding="utf-8"?>
<svg id="Layer_1" data-name="Layer 1" width="42.4" height="42.4" viewBox="0 0 42.4 42.4" xmlns="http://www.w3.org/2000/svg">
  <defs>
    <style>
      .cls-1 {
        fill: #fafafa;
      }

      .cls-2 {
        fill: #fff;
      }

      .cls-3 {
        fill: #0d0d0d;
      }
    </style>
  </defs>
  <g>
    <g>
      <circle class="cls-1" cx="21.2" cy="21.2" r="20.2"/>
      <path class="cls-2" d="M21.1,42.4A21.2,21.2,0,1,1,42.3,21.2,21.21,21.21,0,0,1,21.1,42.4ZM21.1,2A19.2,19.2,0,1,0,40.3,21.2,19.2,19.2,0,0,0,21.1,2Z" transform="translate(0.1)"/>
    </g>
    <g/>
  </g>
  <path d="M 37.387 23.507 L 37.387 18.893 C 35.16 18.055 33.753 17.82 33.045 16.011 L 33.045 16.01 C 32.334 14.196 33.18 12.964 34.187 10.718 L 31.105 7.457 C 28.999 8.516 27.823 9.419 26.104 8.665 C 24.391 7.915 24.168 6.416 23.379 4.07 L 19.02 4.07 C 18.235 6.405 18.01 7.913 16.296 8.665 L 16.295 8.665 C 14.581 9.419 13.419 8.526 11.295 7.457 L 8.213 10.718 C 9.217 12.956 10.067 14.193 9.355 16.01 C 8.644 17.824 7.218 18.063 5.013 18.893 L 5.013 23.507 C 7.214 24.335 8.644 24.576 9.355 26.389 C 10.07 28.219 9.201 29.481 8.213 31.681 L 11.295 34.944 C 13.401 33.883 14.578 32.981 16.295 33.735 L 16.296 33.735 C 18.01 34.486 18.233 35.989 19.02 38.33 L 23.379 38.33 C 24.165 35.994 24.391 34.49 26.114 33.731 L 26.115 33.731 C 27.818 32.983 28.975 33.874 31.104 34.945 L 34.186 31.682 C 33.183 29.451 32.331 28.209 33.042 26.392 C 33.753 24.577 35.184 24.337 37.387 23.507 Z M 21.2 26.91 C 18.22 26.91 15.804 24.354 15.804 21.2 C 15.804 18.047 18.22 15.49 21.2 15.49 C 24.18 15.49 26.596 18.047 26.596 21.2 C 26.596 24.354 24.18 26.91 21.2 26.91 Z" style="fill: rgb(13, 13, 13);"/>
</svg>