<?xml version="1.0" encoding="utf-8"?>
<svg id="Layer_1" data-name="Layer 1" width="286" height="94" viewBox="0 0 286 94" xmlns="http://www.w3.org/2000/svg">
  <defs>
    <style>
      .cls-1 {
        fill: #c1272d;
      }

      .cls-2 {
        fill: #cf2a32;
      }

      .cls-3 {
        fill: #e02d39;
      }

      .cls-4 {
        fill: #3ed8d2;
      }

      .cls-5 {
        fill: #30d5cd;
      }

      .cls-6 {
        fill: #1fd2c6;
      }
    </style>
  </defs>
  <g>
    <g>
      <g>
        <path class="cls-1" d="M47,92.5A45.5,45.5,0,1,1,92.5,47,45.54,45.54,0,0,1,47,92.5Z" style="fill: rgb(28, 73, 141);"/>
        <path class="cls-2" d="M47,3A44,44,0,1,1,3,47,44,44,0,0,1,47,3m0-3A47,47,0,1,0,94,47,46.95,46.95,0,0,0,47,0Z" style="fill: rgb(46, 95, 171);"/>
      </g>
      <circle class="cls-3" cx="47" cy="47" r="27.3" style="fill: rgb(46, 95, 171);"/>
    </g>
    <g>
      <g>
        <path class="cls-4" d="M143,92.5A45.5,45.5,0,1,1,188.5,47,45.54,45.54,0,0,1,143,92.5Z"/>
        <path class="cls-5" d="M143,3A44,44,0,1,1,99,47,44,44,0,0,1,143,3m0-3a47,47,0,1,0,47,47A46.95,46.95,0,0,0,143,0Z"/>
      </g>
      <circle class="cls-6" cx="143" cy="47" r="27.3"/>
      <g/>
    </g>
    <g>
      <g>
        <path class="cls-4" d="M239,92.5A45.5,45.5,0,1,1,284.5,47,45.54,45.54,0,0,1,239,92.5Z"/>
        <path class="cls-5" d="M239,3a44,44,0,1,1-44,44A44,44,0,0,1,239,3m0-3a47,47,0,1,0,47,47A46.95,46.95,0,0,0,239,0Z"/>
      </g>
      <circle class="cls-6" cx="239" cy="47" r="27.3"/>
      <g/>
    </g>
  </g>
</svg>